<svg width="20" height="20" viewBox="0 0 20 20" fill="none" xmlns="http://www.w3.org/2000/svg">
<path d="M11.2 1H3.22C1.99393 1 1 1.99393 1 3.22V16.78C1 18.0061 1.99393 19 3.22 19H16.78C18.0061 19 19 18.0061 19 16.78V8.8" stroke="#FCCF5A" stroke-width="1.02" stroke-linecap="round"/>
<rect x="14.167" y="2.19336" width="1.02" height="9.3073" transform="rotate(45 14.167 2.19336)" fill="#FCCF5A"/>
<path d="M16.1782 2.65334L17.3808 3.85601C17.8643 4.3395 17.8643 5.12341 17.3808 5.6069L16.7727 6.21509L13.8191 3.26153L14.4273 2.65334C14.9108 2.16984 15.6947 2.16984 16.1782 2.65334Z" stroke="#FCCF5A" stroke-width="1.02"/>
<rect x="17.123" y="5.14844" width="1.02" height="9.3073" transform="rotate(45 17.123 5.14844)" fill="#FCCF5A"/>
<path fill-rule="evenodd" clip-rule="evenodd" d="M9.64364 12.2746L9.26926 12.5153C9.15182 12.5908 9.01516 12.6309 8.87555 12.6309L8.13037 12.6309C7.72826 12.6309 7.4023 12.3049 7.4023 11.9028L7.40229 11.1577C7.4023 11.0181 7.44243 10.8814 7.51793 10.764L7.7586 10.3896L9.64364 12.2746ZM10.3817 13.0127L9.82083 13.3733C9.53887 13.5545 9.21074 13.6509 8.87555 13.6509L8.13037 13.6509C7.16493 13.6509 6.3823 12.8683 6.38229 11.9028L6.38229 11.1577C6.38229 10.8225 6.47867 10.4943 6.65993 10.2124L7.02051 9.65148L7.58496 8.77344L8.15289 9.34136L8.32306 9.51153L10.5217 11.7102L10.6918 11.8803L11.2598 12.4483L10.3817 13.0127Z" fill="#FCCF5A"/>
</svg>
